<svg xmlns="http://www.w3.org/2000/svg" viewBox="0 0 64 64" width="64" height="64">
  <defs>
    <style>
      .cls-1 { fill: #2563eb; }
      .cls-2 { fill: #ffffff; }
    </style>
  </defs>
  <!-- Blue circular background -->
  <circle cx="32" cy="32" r="32" class="cls-1"/>

  <!-- White microscope/biotech icon -->
  <g class="cls-2" transform="translate(16,12) scale(0.8)">
    <!-- Simplified biotech/microscope symbol -->
    <path d="M20 8h4v2h-4v6h4v2h-4v4h2v2H10v-2h2v-4h-2v-2h2v-6h-2V8h2V6h8v2z"/>
    <circle cx="16" cy="30" r="3"/>
    <path d="M12 36h8v2h-8z"/>
    <path d="M10 40h12v2H10z"/>
  </g>

  <!-- Marine elements -->
  <g class="cls-2" transform="translate(8,45)">
    <!-- Wave pattern -->
    <path d="M0 4c2-2 4-2 6 0s4 2 6 0 4-2 6 0 4 2 6 0 4-2 6 0 4 2 6 0v2c-2 2-4 2-6 0s-4-2-6 0-4 2-6 0-4-2-6 0-4 2-6 0-4-2-6 0V4z" opacity="0.7"/>
  </g>
</svg>